<?xml version="1.0" standalone="no"?>
<!DOCTYPE svg PUBLIC "-//W3C//DTD SVG 20010904//EN"
 "http://www.w3.org/TR/2001/REC-SVG-20010904/DTD/svg10.dtd">
<svg version="1.0" xmlns="http://www.w3.org/2000/svg"
 width="310.000000pt" height="310.000000pt" viewBox="0 0 310.000000 310.000000"
 preserveAspectRatio="xMidYMid meet">
<metadata>
Created by potrace 1.11, written by Peter Selinger 2001-2013
</metadata>
<g transform="translate(0.000000,310.000000) scale(0.100000,-0.100000)"
fill="#000000" stroke="none">
<path d="M588 2690 c-46 -25 -83 -73 -98 -128 -25 -95 39 -202 136 -227 136
-34 253 63 242 201 -11 135 -161 217 -280 154z m153 -109 c37 -37 38 -79 3
-120 -54 -64 -154 -28 -154 57 0 85 91 123 151 63z"/>
<path d="M2034 2696 c-3 -8 -4 -27 -2 -43 3 -26 7 -28 51 -31 l47 -3 0 45 0
46 -45 0 c-30 0 -47 -5 -51 -14z"/>
<path d="M1752 2612 c-8 -6 -12 -24 -10 -48 3 -39 3 -39 51 -42 l48 -3 -3 48
c-3 47 -4 48 -38 51 -19 1 -41 -2 -48 -6z"/>
<path d="M1940 2470 l0 -50 45 0 45 0 0 50 0 50 -45 0 -45 0 0 -50z"/>
<path d="M1510 2350 c-8 -16 -9 -29 -2 -45 9 -19 23 -23 111 -34 116 -14 181
-34 284 -88 92 -48 219 -172 273 -266 40 -70 70 -91 99 -67 25 20 17 62 -22
129 -131 221 -384 375 -639 389 -88 4 -92 4 -104 -18z"/>
<path d="M1226 2305 c-44 -19 -104 -51 -135 -71 -72 -48 -177 -154 -226 -227
-33 -50 -37 -62 -29 -85 11 -30 46 -41 70 -21 8 7 31 36 51 66 58 88 161 174
270 229 108 53 133 70 133 91 0 14 -35 53 -47 53 -5 0 -44 -16 -87 -35z"/>
<path d="M1405 2161 c-145 -36 -259 -111 -356 -234 -62 -80 -108 -119 -171
-146 -24 -10 -184 -42 -358 -70 -173 -29 -330 -57 -347 -62 -100 -32 -96 -170
5 -199 20 -6 161 -31 312 -56 151 -25 291 -48 310 -51 94 -16 168 -66 249
-170 192 -245 500 -319 776 -188 87 42 152 97 236 199 40 49 85 91 121 113 60
37 67 39 488 108 240 40 258 43 279 54 78 42 64 163 -22 190 -17 5 -104 21
-192 35 -88 14 -185 30 -215 36 -30 5 -105 19 -167 29 -159 28 -207 57 -302
178 -160 204 -406 293 -646 234z m264 -408 c135 -84 157 -257 46 -368 -112
-112 -284 -89 -370 49 -25 42 -30 59 -30 115 0 54 5 75 28 113 71 121 213 161
326 91z"/>
<path d="M2238 1293 c-8 -10 -34 -54 -57 -98 -35 -66 -41 -83 -32 -102 8 -16
19 -23 40 -23 35 0 56 26 102 125 30 62 30 67 15 90 -19 29 -47 32 -68 8z"/>
<path d="M836 1204 c-23 -22 -20 -34 22 -100 109 -167 265 -283 467 -347 60
-19 93 -22 225 -22 173 0 240 14 370 80 117 59 240 162 240 201 0 20 -32 54
-52 54 -4 0 -37 -27 -75 -60 -70 -62 -182 -126 -268 -153 -303 -95 -644 28
-820 294 -48 73 -76 87 -109 53z"/>
<path d="M631 956 c-50 -28 -65 -95 -31 -139 53 -67 162 -43 170 38 4 42 -1
57 -29 86 -32 32 -70 37 -110 15z"/>
<path d="M888 772 c-14 -3 -18 -14 -18 -48 l0 -44 50 0 50 0 0 45 c0 25 -3 46
-7 46 -21 4 -60 4 -75 1z"/>
<path d="M2498 659 c-49 -26 -82 -88 -75 -141 11 -83 71 -131 155 -125 45 3
59 9 89 40 31 30 37 44 41 89 3 44 0 59 -20 88 -45 67 -121 86 -190 49z m96
-95 c29 -29 13 -74 -25 -74 -19 0 -49 25 -49 41 0 12 37 49 49 49 5 0 17 -7
25 -16z"/>
</g>
</svg>
